<svg width="112" height="47" viewBox="0 0 112 47" fill="none" xmlns="http://www.w3.org/2000/svg">
<g clip-path="url(#clip0)">
<path d="M36.6955 4.10084L37.8486 3.99995L37.6843 5.24622L19.8455 25.559L20.6367 26.7901L20.0297 27.6645L19.6227 27.7001L15.3203 33.2094L6.66454 42.8637L4.63808 42.3566L3.50774 41.1551L2.81655 39.5046L11.2807 30.004L16.5802 24.955L16.5565 24.6833L17.718 23.8973L18.727 24.4934L36.6955 4.10084Z" stroke="white"/>
<path d="M31.3024 17.4H35.2084C35.6404 17.4 35.9104 17.598 36.0184 17.994L40.0324 29.478C40.0444 29.514 40.0504 29.574 40.0504 29.658C40.0504 29.73 40.0084 29.808 39.9244 29.892C39.8524 29.964 39.7624 30 39.6544 30H36.3244C35.9644 30 35.7304 29.85 35.6224 29.55L35.1904 28.362H31.3204L30.8884 29.55C30.7804 29.85 30.5464 30 30.1864 30H26.8564C26.7484 30 26.6524 29.964 26.5684 29.892C26.4964 29.808 26.4604 29.73 26.4604 29.658C26.4604 29.574 26.4664 29.514 26.4784 29.478L30.4924 17.994C30.6004 17.598 30.8704 17.4 31.3024 17.4ZM32.2384 24.852H34.2724L33.2464 21.504L32.2384 24.852ZM41.9792 17.4H47.3432C49.0712 17.4 50.4212 17.772 51.3932 18.516C52.3652 19.26 52.8512 20.358 52.8512 21.81C52.8512 23.262 52.3652 24.336 51.3932 25.032C50.4332 25.728 49.0832 26.076 47.3432 26.076H46.1732V29.514C46.1732 29.646 46.1252 29.76 46.0292 29.856C45.9332 29.952 45.8192 30 45.6872 30H41.9792C41.8472 30 41.7332 29.952 41.6372 29.856C41.5412 29.76 41.4932 29.646 41.4932 29.514V17.886C41.4932 17.754 41.5412 17.64 41.6372 17.544C41.7332 17.448 41.8472 17.4 41.9792 17.4ZM46.0832 20.748V22.746H47.3432C47.5592 22.746 47.7512 22.668 47.9192 22.512C48.0872 22.344 48.1712 22.11 48.1712 21.81C48.1712 21.51 48.1052 21.258 47.9732 21.054C47.8412 20.85 47.6312 20.748 47.3432 20.748H46.0832ZM58.698 26.49H64.242C64.374 26.49 64.488 26.538 64.584 26.634C64.68 26.73 64.728 26.844 64.728 26.976V29.514C64.728 29.646 64.68 29.76 64.584 29.856C64.488 29.952 64.374 30 64.242 30H54.864C54.732 30 54.618 29.952 54.522 29.856C54.426 29.76 54.378 29.646 54.378 29.514V17.886C54.378 17.754 54.426 17.64 54.522 17.544C54.618 17.448 54.732 17.4 54.864 17.4H64.098C64.23 17.4 64.344 17.448 64.44 17.544C64.536 17.64 64.584 17.754 64.584 17.886V20.424C64.584 20.556 64.536 20.67 64.44 20.766C64.344 20.862 64.23 20.91 64.098 20.91H58.698V22.044H63.702C63.834 22.044 63.948 22.092 64.044 22.188C64.14 22.284 64.188 22.398 64.188 22.53V24.87C64.188 25.002 64.14 25.116 64.044 25.212C63.948 25.308 63.834 25.356 63.702 25.356H58.698V26.49ZM74.7956 17.4H78.3236C78.4556 17.4 78.5696 17.448 78.6656 17.544C78.7616 17.64 78.8096 17.754 78.8096 17.886V29.514C78.8096 29.646 78.7616 29.76 78.6656 29.856C78.5696 29.952 78.4556 30 78.3236 30H74.7956C74.6636 30 74.5496 29.952 74.4536 29.856C74.3576 29.76 74.3096 29.646 74.3096 29.514V25.626H71.3936V29.514C71.3936 29.646 71.3456 29.76 71.2496 29.856C71.1536 29.952 71.0396 30 70.9076 30H67.3796C67.2476 30 67.1336 29.958 67.0376 29.874C66.9416 29.778 66.8936 29.658 66.8936 29.514V17.886C66.8936 17.754 66.9416 17.64 67.0376 17.544C67.1336 17.448 67.2476 17.4 67.3796 17.4H70.9076C71.0396 17.4 71.1536 17.448 71.2496 17.544C71.3456 17.64 71.3936 17.754 71.3936 17.886V21.666H74.3096V17.886C74.3096 17.754 74.3576 17.64 74.4536 17.544C74.5496 17.448 74.6636 17.4 74.7956 17.4ZM83.1655 17.4H93.0295C93.1615 17.4 93.2755 17.448 93.3715 17.544C93.4675 17.64 93.5155 17.754 93.5155 17.886V26.04H94.2895C94.4215 26.04 94.5355 26.088 94.6315 26.184C94.7275 26.28 94.7755 26.394 94.7755 26.526V31.728C94.7755 31.86 94.7275 31.974 94.6315 32.07C94.5355 32.166 94.4215 32.214 94.2895 32.214H90.7615C90.6295 32.214 90.5155 32.166 90.4195 32.07C90.3235 31.974 90.2755 31.86 90.2755 31.728V30H85.3795V31.728C85.3795 31.86 85.3315 31.974 85.2355 32.07C85.1395 32.166 85.0255 32.214 84.8935 32.214H81.3655C81.2335 32.214 81.1195 32.166 81.0235 32.07C80.9275 31.986 80.8795 31.872 80.8795 31.728V26.526C80.8795 26.394 80.9275 26.28 81.0235 26.184C81.1195 26.088 81.2335 26.04 81.3655 26.04H81.4375C81.7975 26.04 82.0915 25.92 82.3195 25.68C82.5595 25.44 82.6795 25.098 82.6795 24.654V17.886C82.6795 17.754 82.7275 17.64 82.8235 17.544C82.9195 17.448 83.0335 17.4 83.1655 17.4ZM89.0155 21.36H87.1795V24.672C87.1795 25.344 87.1255 25.8 87.0175 26.04H89.0155V21.36ZM100.789 17.4H104.695C105.127 17.4 105.397 17.598 105.505 17.994L109.519 29.478C109.531 29.514 109.537 29.574 109.537 29.658C109.537 29.73 109.495 29.808 109.411 29.892C109.339 29.964 109.249 30 109.141 30H105.811C105.451 30 105.217 29.85 105.109 29.55L104.677 28.362H100.807L100.375 29.55C100.267 29.85 100.033 30 99.6728 30H96.3428C96.2348 30 96.1388 29.964 96.0548 29.892C95.9828 29.808 95.9468 29.73 95.9468 29.658C95.9468 29.574 95.9528 29.514 95.9648 29.478L99.9788 17.994C100.087 17.598 100.357 17.4 100.789 17.4ZM101.725 24.852H103.759L102.733 21.504L101.725 24.852Z" fill="white"/>
</g>
<defs>
<clipPath id="clip0">
<rect width="112" height="47" fill="white"/>
</clipPath>
</defs>
</svg>
