<svg width="241" height="101" viewBox="0 0 241 101" fill="none" xmlns="http://www.w3.org/2000/svg">
<g clip-path="url(#clip0)">
<path d="M84.2122 4.1507L86.9919 3.9075L86.5957 6.91189L43.5916 55.8801L45.4989 58.8479L44.0356 60.9558L43.0545 61.0416L32.6828 74.3229L11.8162 97.5965L6.93104 96.374L4.20613 93.4777L2.53988 89.4989L22.9445 66.5956L35.7201 54.4239L35.6628 53.769L38.4628 51.8742L40.8953 53.3112L84.2122 4.1507Z" stroke="#004703"/>
<path d="M65.4498 35H74.1298C75.0898 35 75.6898 35.44 75.9298 36.32L84.8498 61.84C84.8765 61.92 84.8898 62.0533 84.8898 62.24C84.8898 62.4 84.7965 62.5733 84.6098 62.76C84.4498 62.92 84.2498 63 84.0098 63H76.6098C75.8098 63 75.2898 62.6667 75.0498 62L74.0898 59.36H65.4898L64.5298 62C64.2898 62.6667 63.7698 63 62.9698 63H55.5698C55.3298 63 55.1165 62.92 54.9298 62.76C54.7698 62.5733 54.6898 62.4 54.6898 62.24C54.6898 62.0533 54.7032 61.92 54.7298 61.84L63.6498 36.32C63.8898 35.44 64.4898 35 65.4498 35ZM67.5298 51.56H72.0498L69.7698 44.12L67.5298 51.56ZM89.1761 35H101.096C104.936 35 107.936 35.8267 110.096 37.48C112.256 39.1333 113.336 41.5733 113.336 44.8C113.336 48.0267 112.256 50.4133 110.096 51.96C107.963 53.5067 104.963 54.28 101.096 54.28H98.4961V61.92C98.4961 62.2133 98.3894 62.4667 98.1761 62.68C97.9628 62.8933 97.7094 63 97.4161 63H89.1761C88.8828 63 88.6294 62.8933 88.4161 62.68C88.2028 62.4667 88.0961 62.2133 88.0961 61.92V36.08C88.0961 35.7867 88.2028 35.5333 88.4161 35.32C88.6294 35.1067 88.8828 35 89.1761 35ZM98.2961 42.44V46.88H101.096C101.576 46.88 102.003 46.7067 102.376 46.36C102.749 45.9867 102.936 45.4667 102.936 44.8C102.936 44.1333 102.789 43.5733 102.496 43.12C102.203 42.6667 101.736 42.44 101.096 42.44H98.2961ZM126.329 55.2H138.649C138.942 55.2 139.196 55.3067 139.409 55.52C139.622 55.7333 139.729 55.9867 139.729 56.28V61.92C139.729 62.2133 139.622 62.4667 139.409 62.68C139.196 62.8933 138.942 63 138.649 63H117.809C117.516 63 117.262 62.8933 117.049 62.68C116.836 62.4667 116.729 62.2133 116.729 61.92V36.08C116.729 35.7867 116.836 35.5333 117.049 35.32C117.262 35.1067 117.516 35 117.809 35H138.329C138.622 35 138.876 35.1067 139.089 35.32C139.302 35.5333 139.409 35.7867 139.409 36.08V41.72C139.409 42.0133 139.302 42.2667 139.089 42.48C138.876 42.6933 138.622 42.8 138.329 42.8H126.329V45.32H137.449C137.742 45.32 137.996 45.4267 138.209 45.64C138.422 45.8533 138.529 46.1067 138.529 46.4V51.6C138.529 51.8933 138.422 52.1467 138.209 52.36C137.996 52.5733 137.742 52.68 137.449 52.68H126.329V55.2ZM162.101 35H169.941C170.235 35 170.488 35.1067 170.701 35.32C170.915 35.5333 171.021 35.7867 171.021 36.08V61.92C171.021 62.2133 170.915 62.4667 170.701 62.68C170.488 62.8933 170.235 63 169.941 63H162.101C161.808 63 161.555 62.8933 161.341 62.68C161.128 62.4667 161.021 62.2133 161.021 61.92V53.28H154.541V61.92C154.541 62.2133 154.435 62.4667 154.221 62.68C154.008 62.8933 153.755 63 153.461 63H145.621C145.328 63 145.075 62.9067 144.861 62.72C144.648 62.5067 144.541 62.24 144.541 61.92V36.08C144.541 35.7867 144.648 35.5333 144.861 35.32C145.075 35.1067 145.328 35 145.621 35H153.461C153.755 35 154.008 35.1067 154.221 35.32C154.435 35.5333 154.541 35.7867 154.541 36.08V44.48H161.021V36.08C161.021 35.7867 161.128 35.5333 161.341 35.32C161.555 35.1067 161.808 35 162.101 35ZM180.701 35H202.621C202.914 35 203.168 35.1067 203.381 35.32C203.594 35.5333 203.701 35.7867 203.701 36.08V54.2H205.421C205.714 54.2 205.968 54.3067 206.181 54.52C206.394 54.7333 206.501 54.9867 206.501 55.28V66.84C206.501 67.1333 206.394 67.3867 206.181 67.6C205.968 67.8133 205.714 67.92 205.421 67.92H197.581C197.288 67.92 197.034 67.8133 196.821 67.6C196.608 67.3867 196.501 67.1333 196.501 66.84V63H185.621V66.84C185.621 67.1333 185.514 67.3867 185.301 67.6C185.088 67.8133 184.834 67.92 184.541 67.92H176.701C176.408 67.92 176.154 67.8133 175.941 67.6C175.728 67.4133 175.621 67.16 175.621 66.84V55.28C175.621 54.9867 175.728 54.7333 175.941 54.52C176.154 54.3067 176.408 54.2 176.701 54.2H176.861C177.661 54.2 178.314 53.9333 178.821 53.4C179.354 52.8667 179.621 52.1067 179.621 51.12V36.08C179.621 35.7867 179.728 35.5333 179.941 35.32C180.154 35.1067 180.408 35 180.701 35ZM193.701 43.8H189.621V51.16C189.621 52.6533 189.501 53.6667 189.261 54.2H193.701V43.8ZM219.864 35H228.544C229.504 35 230.104 35.44 230.344 36.32L239.264 61.84C239.291 61.92 239.304 62.0533 239.304 62.24C239.304 62.4 239.211 62.5733 239.024 62.76C238.864 62.92 238.664 63 238.424 63H231.024C230.224 63 229.704 62.6667 229.464 62L228.504 59.36H219.904L218.944 62C218.704 62.6667 218.184 63 217.384 63H209.984C209.744 63 209.531 62.92 209.344 62.76C209.184 62.5733 209.104 62.4 209.104 62.24C209.104 62.0533 209.117 61.92 209.144 61.84L218.064 36.32C218.304 35.44 218.904 35 219.864 35ZM221.944 51.56H226.464L224.184 44.12L221.944 51.56Z" fill="#323232"/>
</g>
<defs>
<clipPath id="clip0">
<rect width="241" height="101" fill="white"/>
</clipPath>
</defs>
</svg>
