<svg width="400" height="300" viewBox="0 0 400 300" fill="none" xmlns="http://www.w3.org/2000/svg">
<rect width="400" height="300" fill="white"/>
<path fill-rule="evenodd" clip-rule="evenodd" d="M135.624 10.4936C165.834 5.77449 189.819 35.9305 212.23 56.7206C232.181 75.2284 246.172 97.6968 256.682 122.794C268.13 150.132 286.951 180.211 275.367 207.492C263.802 234.728 227.23 238.104 201.503 252.74C179.451 265.285 160.994 287.457 135.624 286.993C110.383 286.531 89.9839 267.519 71.4729 250.362C54.8694 234.973 44.117 215.581 35.8459 194.513C27.0455 172.096 14.7689 148.179 22.3893 125.334C29.9954 102.533 57.7615 95.3325 74.6411 78.2136C96.5047 56.0399 104.85 15.3008 135.624 10.4936Z" fill="#FCA31E" fill-opacity="0.7"/>
<path fill-rule="evenodd" clip-rule="evenodd" d="M240.578 22.4728C251.055 18.6406 257.273 39.3338 268.386 40.3204C288.023 42.0639 306.742 25.3036 325.878 30.0459C346.378 35.1266 377.912 46.0196 376.304 67.0655C374.373 92.3346 317.163 90.7285 319.311 115.98C322.806 157.057 388.972 175.077 389 216.302C389.019 244.318 345.243 272.492 319.411 261.605C277.839 244.084 282.716 169.861 240.578 153.747C215.762 144.258 210.244 222.166 186.28 210.695C162.341 199.236 211.8 154.783 196.893 132.836C183.59 113.25 137.197 145.365 127.299 123.859C118.54 104.828 156.295 94.2283 173.867 82.8065C183.903 76.2831 196.985 77.3317 207.547 71.6991C213.371 68.5932 217.429 63.0947 221.106 57.6154C228.663 46.3529 227.836 27.1341 240.578 22.4728Z" fill="#88DD9B" fill-opacity="0.82"/>
<path opacity="0.3" d="M191.167 77.6667L174.167 60.5834L182.333 51.6667H217.667L232.917 68.3334H266.667V153.083L240.667 127.083C241.333 124.25 241.667 121.333 241.667 118.333C241.667 95.3334 223 76.6667 200 76.6667C197 76.6667 194.083 77.0001 191.167 77.6667ZM200 160C177 160 158.333 141.333 158.333 118.333C158.333 110.75 160.417 103.667 164 97.5834L134.75 68.3334H133.333V168.333H234.75L220.75 154.333C214.667 157.917 207.583 160 200 160V160Z" fill="black"/>
<path d="M174.167 60.5833L162.333 48.8333L175 35H225L240.25 51.6667H266.667C275.833 51.6667 283.333 59.1667 283.333 68.3333V168.333C283.333 168.75 283.25 169.167 283.167 169.667L266.667 153.083V68.3333H232.917L217.667 51.6667H182.333L174.167 60.5833ZM270.75 204.25L251.417 185H133.333C124.167 185 116.667 177.5 116.667 168.333V68.3333C116.667 63.4167 118.917 59 122.333 55.9167L105.667 39.25L117.5 27.5L158.333 68.3333L175.083 85.0833L187 97L221.167 131.167L233.083 143.083L258.333 168.333L273.5 183.5L282.5 192.5L270.75 204.25V204.25ZM176.583 110.167C175.667 112.75 175 115.417 175 118.333C175 132.083 186.25 143.333 200 143.333C202.917 143.333 205.583 142.667 208.167 141.75L176.583 110.167V110.167ZM234.75 168.333L220.75 154.333C214.667 157.917 207.583 160 200 160C177 160 158.333 141.333 158.333 118.333C158.333 110.75 160.417 103.667 164 97.5833L134.75 68.3333H133.333V168.333H234.75ZM223.417 109.833L240.75 127.167C241.333 124.25 241.667 121.333 241.667 118.333C241.667 95.3333 223 76.6667 200 76.6667C197 76.6667 194.083 77 191.167 77.6667L208.5 95C211.915 96.2401 215.018 98.2096 217.595 100.771C220.171 103.333 222.158 106.425 223.417 109.833V109.833Z" fill="black"/>
<path d="M25.818 226.2H61.978V234.456H36.122V243.672H48.538C53.9567 243.672 58.074 244.803 60.89 247.064C63.7487 249.325 65.178 252.589 65.178 256.856C65.178 261.336 63.5993 264.813 60.442 267.288C57.2847 269.763 52.826 271 47.066 271H25.818V226.2ZM46.49 263.32C49.1353 263.32 51.162 262.808 52.57 261.784C53.978 260.717 54.682 259.181 54.682 257.176C54.682 253.251 51.9513 251.288 46.49 251.288H36.122V263.32H46.49ZM107.756 262.68V271H73.068V226.2H106.924V234.52H83.372V244.248H104.172V252.312H83.372V262.68H107.756ZM141.603 247.64C144.205 248.536 146.232 249.944 147.683 251.864C149.176 253.741 149.923 255.939 149.923 258.456C149.923 261.187 149.027 263.555 147.235 265.56C145.443 267.565 143.011 269.101 139.939 270.168C136.909 271.235 133.581 271.768 129.955 271.768C126.883 271.768 123.811 271.384 120.739 270.616C117.709 269.848 114.829 268.675 112.099 267.096L115.299 259.672C117.261 260.867 119.416 261.784 121.763 262.424C124.152 263.021 126.477 263.32 128.739 263.32C131.811 263.32 134.349 262.765 136.355 261.656C138.403 260.547 139.427 258.989 139.427 256.984C139.427 255.32 138.723 254.061 137.315 253.208C135.949 252.355 134.072 251.928 131.683 251.928H120.739V244.12H130.915C133.005 244.12 134.627 243.693 135.779 242.84C136.973 241.987 137.571 240.813 137.571 239.32C137.571 237.571 136.717 236.205 135.011 235.224C133.347 234.243 131.192 233.752 128.547 233.752C126.584 233.752 124.557 234.029 122.467 234.584C120.376 235.096 118.392 235.885 116.515 236.952L113.379 228.888C118.115 226.456 123.235 225.24 128.739 225.24C132.237 225.24 135.459 225.752 138.403 226.776C141.347 227.8 143.693 229.293 145.443 231.256C147.192 233.219 148.067 235.501 148.067 238.104C148.067 240.237 147.491 242.136 146.339 243.8C145.187 245.464 143.608 246.744 141.603 247.64ZM229.312 248.472C229.312 254.403 227.285 259.075 223.232 262.488C219.221 265.859 213.44 267.736 205.888 268.12V272.984H196.352V268.056C188.757 267.629 182.933 265.731 178.88 262.36C174.869 258.947 172.864 254.317 172.864 248.472C172.864 242.584 174.869 237.976 178.88 234.648C182.933 231.277 188.757 229.357 196.352 228.888V224.28H205.888V228.824C213.44 229.251 219.221 231.171 223.232 234.584C227.285 237.997 229.312 242.627 229.312 248.472ZM205.888 259.992C210.41 259.565 213.781 258.413 216 256.536C218.218 254.616 219.328 251.907 219.328 248.408C219.328 241.581 214.848 237.784 205.888 237.016V259.992ZM182.912 248.472C182.912 255.213 187.392 259.053 196.352 259.992V237.016C191.786 237.443 188.394 238.595 186.176 240.472C184 242.307 182.912 244.973 182.912 248.472ZM258.444 271.768C253.793 271.768 249.591 270.765 245.836 268.76C242.124 266.755 239.201 264.003 237.068 260.504C234.977 256.963 233.932 252.995 233.932 248.6C233.932 244.205 234.977 240.259 237.068 236.76C239.201 233.219 242.124 230.445 245.836 228.44C249.591 226.435 253.793 225.432 258.444 225.432C263.095 225.432 267.276 226.435 270.988 228.44C274.7 230.445 277.623 233.219 279.756 236.76C281.889 240.259 282.956 244.205 282.956 248.6C282.956 252.995 281.889 256.963 279.756 260.504C277.623 264.003 274.7 266.755 270.988 268.76C267.276 270.765 263.095 271.768 258.444 271.768ZM258.444 262.936C261.089 262.936 263.479 262.339 265.612 261.144C267.745 259.907 269.409 258.2 270.604 256.024C271.841 253.848 272.46 251.373 272.46 248.6C272.46 245.827 271.841 243.352 270.604 241.176C269.409 239 267.745 237.315 265.612 236.12C263.479 234.883 261.089 234.264 258.444 234.264C255.799 234.264 253.409 234.883 251.276 236.12C249.143 237.315 247.457 239 246.22 241.176C245.025 243.352 244.428 245.827 244.428 248.6C244.428 251.373 245.025 253.848 246.22 256.024C247.457 258.2 249.143 259.907 251.276 261.144C253.409 262.339 255.799 262.936 258.444 262.936ZM324.558 234.648H310.222V271H299.982V234.648H285.71V226.2H324.558V234.648ZM351.819 271.768C347.168 271.768 342.966 270.765 339.211 268.76C335.499 266.755 332.576 264.003 330.443 260.504C328.352 256.963 327.307 252.995 327.307 248.6C327.307 244.205 328.352 240.259 330.443 236.76C332.576 233.219 335.499 230.445 339.211 228.44C342.966 226.435 347.168 225.432 351.819 225.432C356.47 225.432 360.651 226.435 364.363 228.44C368.075 230.445 370.998 233.219 373.131 236.76C375.264 240.259 376.331 244.205 376.331 248.6C376.331 252.995 375.264 256.963 373.131 260.504C370.998 264.003 368.075 266.755 364.363 268.76C360.651 270.765 356.47 271.768 351.819 271.768ZM351.819 262.936C354.464 262.936 356.854 262.339 358.987 261.144C361.12 259.907 362.784 258.2 363.979 256.024C365.216 253.848 365.835 251.373 365.835 248.6C365.835 245.827 365.216 243.352 363.979 241.176C362.784 239 361.12 237.315 358.987 236.12C356.854 234.883 354.464 234.264 351.819 234.264C349.174 234.264 346.784 234.883 344.651 236.12C342.518 237.315 340.832 239 339.595 241.176C338.4 243.352 337.803 245.827 337.803 248.6C337.803 251.373 338.4 253.848 339.595 256.024C340.832 258.2 342.518 259.907 344.651 261.144C346.784 262.339 349.174 262.936 351.819 262.936Z" fill="black"/>
</svg>
